# xmcd CD database file
# Copyright (C) 1993-1998 Ti Kan
#
# Track frame offsets:
# 150
# 19157
# 34791
# 45032
# 58414
# 69057
# 79884
# 91651
# 105511
# 117629
# 129597
# 142087
# 157134
# 173470
# 189823
# 201745
# 222441
# 236320
# 246597
# 260090
# 275093
# 288540
# 299749
# 310593
#
# Disc length: 4259 seconds
# Revision: 0
# Processed by: cddbd v1.4b41PL1 Copyright (c) Steve Scherf et al.
# Submitted via: CDSpectrumPro v3.3.331
#
DISCID=6f10a118
DTITLE=Various Artist - Evergreen Melodies
DYEAR=1900
DGENRE=
TTITLE0=Ray Charles - I Can't Stop Loving You
TTITLE1=Nat King Cole - Mona Lisa
TTITLE2=Louis Armstrong - What A Wonderful World
TTITLE3=Ben E.King - Stand By Me
TTITLE4=Paul Anka - Diana
TTITLE5=Roy Orbison - Only The Lonely
TTITLE6=The Platters - Only You
TTITLE7=Cynthia Clay - Lonely Without You
TTITLE8=Elvis Presley - Love Me Tender
TTITLE9=Frank and Nancy Sinatra - Something Stupid
TTITLE10=Al Martino - Spanish Eyes
TTITLE11=Harry Belafonte - Island In The Sun
TTITLE12=Righteous Brothers - Unchained Melody
TTITLE13=Gene Pitney - Something's Gotten Hold Of My Heart
TTITLE14=Boby Vinton - Roses Are Red (My Love)
TTITLE15=Shirley Bassey - The Power Of Love
TTITLE16=Tom Jones - Green Green Grass Of Home
TTITLE17=Neil Sadaka - Oh, Carol
TTITLE18=Percy Sledge - When A Man Loves A Women
TTITLE19=Engelbert Humperding - Please, Release Me
TTITLE20=Louis Prima - Buona Sera
TTITLE21=Connie Francis - My Happiness
TTITLE22=Richie Valens - Donna
TTITLE23=Wayne Fontana and The Mindbenders - Groovy Kind Of Love
EXTD=
EXTT0=
EXTT1=
EXTT2=
EXTT3=
EXTT4=
EXTT5=
EXTT6=
EXTT7=
EXTT8=
EXTT9=
EXTT10=
EXTT11=
EXTT12=
EXTT13=
EXTT14=
EXTT15=
EXTT16=
EXTT17=
EXTT18=
EXTT19=
EXTT20=
EXTT21=
EXTT22=
EXTT23=
PLAYORDER=
